PathFileType	4	(X/Y/Z)	Walk3.trc
DataRate	CameraRate	NumFrames	NumMarkers	Units	OrigDataRate	OrigDataStartFrame	OrigNumFrames
200.000000	200.000000	6	58	mm	200.000000	459	499
Frame#	Times		LFHD		RFHD		RASI		RACR1		RUA1		RElbow		RFA1		RCAR		LACR1		LUA1		RTH3		RTH2		LLFC		LTB3		LTB2		LMT1		LMT5		LCAR		LTH3		RBHD		RWRU		RLFC		RTB2		LWRR		LASI		LTH2		C7		LElbow		RTH1		RTB4		RMT1		RBack		CLAV		LFA1		RTB3		RTB1		STRN		RToe		LTB1		RWRR		LTB4		LPSI		LTH4		LTH1		LElbowM		LWRU		RPSI		RMMAL		RLMAL		LToe		RTH4		LBHD		LCAL		RMT5		RCAL		T10		LLMAL		LMMAL
			X1	Y1	Z1	X2	Y2	Z2	X3	Y3	Z3	X4	Y4	Z4	X5	Y5	Z5	X6	Y6	Z6	X7	Y7	Z7	X8	Y8	Z8	X9	Y9	Z9	X10	Y10	Z10	X11	Y11	Z11	X12	Y12	Z12	X13	Y13	Z13	X14	Y14	Z14	X15	Y15	Z15	X16	Y16	Z16	X17	Y17	Z17	X18	Y18	Z18	X19	Y19	Z19	X20	Y20	Z20	X21	Y21	Z21	X22	Y22	Z22	X23	Y23	Z23	X24	Y24	Z24	X25	Y25	Z25	X26	Y26	Z26	X27	Y27	Z27	X28	Y28	Z28	X29	Y29	Z29	X30	Y30	Z30	X31	Y31	Z31	X32	Y32	Z32	X33	Y33	Z33	X34	Y34	Z34	X35	Y35	Z35	X36	Y36	Z36	X37	Y37	Z37	X38	Y38	Z38	X39	Y39	Z39	X40	Y40	Z40	X41	Y41	Z41	X42	Y42	Z42	X43	Y43	Z43	X44	Y44	Z44	X45	Y45	Z45	X46	Y46	Z46	X47	Y47	Z47	X48	Y48	Z48	X49	Y49	Z49	X50	Y50	Z50	X51	Y51	Z51	X52	Y52	Z52	X53	Y53	Z53	X54	Y54	Z54	X55	Y55	Z55	X56	Y56	Z56	X57	Y57	Z57	X58	Y58	Z58

459	2.295	977.66	1612.9	-94.693	965.1	1613.8	-0.75148	977.95	986.62	112.8	870.48	1391.6	99.882	839.17	1212	199.83	781.4	1093.3	222.34	785.02	946.9	241.18	868.19	793.76	258.91	884.92	1383.7	-210.83	906.99	1204.8	-304.09	993.02	589.01	153.08	1014.3	690.94	168.9	874.89	483.26	-157.99	880.89	170.59	-78.168	873.02	256.68	-134.2	945.56	33.608	-30.643	919.11	23.845	-110.69	1074.1	827.96	-327.28	885.09	604.37	-192.3	815.78	1551.3	-2.8658	806.09	840.18	252.65	1023.6	512.8	134.42	952.41	296.34	119.75	1041.2	866.87	-288.41	1003.3	970.44	-173.43	948.52	688.47	-201.71	799.54	1425.5	-56.248	897.69	1077.4	-336.23	927.88	745.93	186.76	978.82	280.62	64.597	931.2	58.149	32.646	746.17	1333.8	50.075	939.54	1352.7	-52.565	945.96	946.8	-346.32	928.15	211.64	63.286	1029.4	351.48	72.361	1003.4	1250.3	-39.159	982.73	44.175	70.376	908.45	340.26	-77.865	862.06	846.73	208.91	894.2	254.96	-76.406	746.06	975.32	-86.526	893.05	684.78	-217.68	901.94	763.47	-252.59	857.65	1042.3	-271.59	1002.7	843.35	-346.34	742.03	974.75	3.1724	861.46	131.75	1.1551	833.45	132.13	79.761	1014	28.924	-53.027	959.77	666.19	168.16	839.21	1543.1	-141.25	768.66	31.1	-68.595	892.91	59.455	97.596	765.41	124.37	34.229	733.39	1157.4	-54.443	834.77	59.407	-101.33	843.48	68.117	-18.406
460	2.3	982.95	1612.6	-94.774	970.32	1613.5	-0.83888	983.14	986.31	112.27	875.65	1391.3	99.698	843.77	1211.8	199.56	785.61	1093.1	221.94	788.78	946.77	240.72	871.57	793.45	258.72	890.2	1383.5	-211	913.01	1204.9	-304.46	1000.2	589.63	152.36	1020.6	691.68	168.57	875.78	483.28	-158.22	881.18	170.58	-78.214	873.46	256.67	-134.28	945.81	33.382	-30.537	919.13	23.806	-110.71	1083.9	830.14	-327.23	886.59	604.42	-192.32	821.02	1550.9	-3.0955	809.56	839.93	252.09	1031.2	513.65	133.49	964.72	294.77	118.75	1050.6	868.65	-288.39	1007.5	970.05	-174.32	950.88	687.8	-202.05	804.83	1425.4	-56.488	904.73	1077.5	-336.78	933.7	745.91	186.66	991.38	279.89	63.449	950.19	56.506	31.996	751.29	1333.7	49.757	944.74	1352.4	-52.779	954.43	947.34	-346.62	942.74	209.51	62.284	1039.9	352.13	71.111	1008.4	1249.8	-39.373	1002.2	44.298	69.668	909.04	340.19	-78.002	865.82	846.44	208.69	894.55	254.91	-76.481	750.61	975.11	-86.075	895.29	684.74	-217.82	904.95	763.24	-252.93	864.73	1042	-272.34	1012.4	844.51	-346.25	746.81	974.54	3.6593	878.49	127.48	0.45249	850.28	127.41	78.995	1014.2	28.711	-52.948	966.27	666.5	167.79	844.54	1542.8	-141.47	768.63	31.277	-68.51	911.84	56.719	97.042	782.45	117.59	33.496	738.4	1157.4	-54.584	834.82	59.503	-101.27	843.6	68.108	-18.329
461	2.305	988.26	1612.3	-94.842	975.55	1613.1	-0.91365	988.31	985.95	111.8	880.83	1391	99.526	848.37	1211.4	199.3	789.85	1093	221.54	792.56	946.6	240.28	875	793.11	258.55	895.46	1383.2	-211.16	919.04	1204.9	-304.81	1007.2	590.18	151.64	1026.9	692.34	168.17	876.75	483.3	-158.45	881.49	170.56	-78.247	873.94	256.66	-134.35	946.07	33.139	-30.423	919.14	23.775	-110.74	1093.7	832.27	-327.16	888.15	604.45	-192.35	826.27	1550.6	-3.31	813.06	839.64	251.54	1038.5	514.4	132.55	977	293.2	117.76	1059.8	870.38	-288.35	1011.7	969.6	-175.18	953.26	687.11	-202.39	810.11	1425.2	-56.708	911.76	1077.5	-337.29	939.6	745.88	186.58	1003.9	279.16	62.328	969.28	54.972	31.417	756.4	1333.6	49.462	949.95	1352	-52.99	962.85	947.85	-346.89	957.38	207.41	61.312	1050.2	352.75	69.873	1013.4	1249.3	-39.619	1021.7	44.533	69.015	909.71	340.1	-78.133	869.63	846.11	208.51	894.95	254.84	-76.55	755.17	974.87	-85.609	897.54	684.71	-217.97	907.94	762.99	-253.27	871.79	1041.7	-273.06	1022	845.64	-346.14	751.61	974.3	4.1614	895.71	123.2	-0.21268	867.29	122.71	78.249	1014.3	28.473	-52.849	972.73	666.79	167.41	849.87	1542.5	-141.68	768.6	31.466	-68.41	930.89	54.045	96.503	799.76	110.82	32.778	743.41	1157.2	-54.706	834.88	59.6	-101.19	843.73	68.124	-18.252
462	2.31	993.58	1612	-94.898	980.79	1612.7	-0.97624	993.47	985.55	111.37	886.01	1390.6	99.367	852.98	1211.1	199.06	794.11	1092.8	221.16	796.38	946.38	239.84	878.47	792.74	258.39	900.71	1382.9	-211.3	925.08	1204.9	-305.12	1014.1	590.67	150.89	1033.2	692.91	167.7	877.81	483.29	-158.65	881.81	170.52	-78.27	874.45	256.63	-134.4	946.33	32.887	-30.304	919.15	23.753	-110.77	1103.3	834.33	-327.08	889.77	604.47	-192.36	831.52	1550.2	-3.5092	816.6	839.3	251	1045.7	515.02	131.6	989.24	291.64	116.78	1069	872.07	-288.3	1015.8	969.1	-176.01	955.67	686.42	-202.74	815.39	1424.9	-56.908	918.77	1077.6	-337.77	945.55	745.84	186.51	1016.4	278.43	61.237	988.46	53.569	30.913	761.52	1333.4	49.193	955.15	1351.6	-53.197	971.21	948.32	-347.14	972.07	205.33	60.371	1060.4	353.34	68.652	1018.5	1248.8	-39.894	1041.3	44.894	68.422	910.45	340	-78.262	873.48	845.75	208.34	895.41	254.76	-76.614	759.74	974.59	-85.131	899.81	684.66	-218.12	910.9	762.73	-253.61	878.84	1041.4	-273.73	1031.5	846.73	-346	756.42	974.02	4.6741	913.13	118.95	-0.8373	884.46	118.07	77.526	1014.5	28.211	-52.734	979.15	667.03	167.03	855.2	1542.2	-141.87	768.58	31.662	-68.295	950.06	51.454	95.977	817.33	104.11	32.077	748.43	1157.1	-54.811	834.95	59.699	-101.09	843.89	68.165	-18.175
463	2.315	998.9	1611.6	-94.943	986.04	1612.3	-1.027	998.61	985.11	111	891.21	1390.2	99.22	857.59	1210.7	198.83	798.4	1092.5	220.79	800.23	946.12	239.41	881.99	792.33	258.25	905.94	1382.6	-211.44	931.13	1204.9	-305.39	1020.8	591.08	150.14	1039.5	693.37	167.16	878.95	483.28	-158.84	882.17	170.47	-78.283	875	256.58	-134.44	946.57	32.638	-30.187	919.15	23.741	-110.79	1112.9	836.34	-326.98	891.48	604.46	-192.38	836.78	1549.8	-3.6931	820.18	838.93	250.47	1052.6	515.52	130.64	1001.4	290.09	115.82	1078.1	873.72	-288.24	1020	968.55	-176.79	958.12	685.73	-203.08	820.66	1424.6	-57.086	925.77	1077.5	-338.23	951.56	745.79	186.47	1028.8	277.72	60.179	1007.7	52.316	30.486	766.65	1333.1	48.949	960.36	1351.1	-53.401	979.5	948.76	-347.36	986.78	203.31	59.463	1070.5	353.91	67.452	1023.5	1248.2	-40.197	1060.8	45.394	67.894	911.27	339.87	-78.387	877.38	845.36	208.18	895.93	254.66	-76.674	764.32	974.28	-84.644	902.12	684.61	-218.27	913.84	762.44	-253.94	885.87	1041.1	-274.38	1040.9	847.79	-345.85	761.25	973.71	5.1932	930.7	114.76	-1.4198	901.79	113.52	76.829	1014.8	27.93	-52.604	985.51	667.23	166.64	860.53	1541.9	-142.05	768.57	31.864	-68.165	969.31	48.972	95.469	835.15	97.494	31.397	753.44	1156.9	-54.901	835.03	59.798	-100.98	844.06	68.23	-18.099
464	2.32	1004.2	1611.2	-94.976	991.3	1611.8	-1.0663	1003.7	984.64	110.68	896.41	1389.7	99.085	862.21	1210.3	198.63	802.72	1092.3	220.43	804.12	945.82	239	885.55	791.9	258.13	911.16	1382.2	-211.56	937.2	1204.8	-305.64	1027.4	591.41	149.38	1045.7	693.74	166.56	880.2	483.25	-159	882.55	170.4	-78.287	875.58	256.52	-134.46	946.78	32.406	-30.078	919.14	23.738	-110.81	1122.3	838.27	-326.87	893.28	604.43	-192.39	842.05	1549.3	-3.8612	823.81	838.51	249.96	1059.2	515.89	129.67	1013.5	288.58	114.88	1087.1	875.31	-288.17	1024.2	967.94	-177.53	960.61	685.03	-203.41	825.93	1424.3	-57.243	932.75	1077.5	-338.65	957.63	745.72	186.45	1041.2	277.03	59.159	1027	51.227	30.132	771.78	1332.8	48.733	965.56	1350.6	-53.6	987.74	949.18	-347.55	1001.5	201.35	58.587	1080.5	354.46	66.278	1028.5	1247.6	-40.526	1080.2	46.046	67.435	912.17	339.71	-78.511	881.3	844.93	208.03	896.52	254.55	-76.731	768.92	973.94	-84.151	904.48	684.54	-218.41	916.79	762.14	-254.26	892.88	1040.7	-274.98	1050.2	848.8	-345.67	766.1	973.38	5.7146	948.42	110.69	-1.9605	919.27	109.09	76.162	1015	27.637	-52.464	991.82	667.37	166.25	865.86	1541.5	-142.21	768.56	32.071	-68.02	988.65	46.629	94.984	853.18	91.016	30.738	758.45	1156.6	-54.974	835.12	59.9	-100.85	844.25	68.311	-18.021
